<svg xmlns="http://www.w3.org/2000/svg" xmlns:xlink="http://www.w3.org/1999/xlink" id="Layer_1" x="0px" y="0px" viewBox="0 0 32 32" style="enable-background:new 0 0 32 32;" xml:space="preserve"><style type="text/css">	.st0{clip-path:url(#SVGID_2_);}	.st1{clip-path:url(#SVGID_4_);}</style><g>	<g>		<path d="M9.4667969,29.1337891H5.078125C2.8291016,29.1337891,1,27.3046875,1,25.0556641v-7.1445313    c0-2.2490234,1.8291016-4.078125,4.078125-4.078125h4.3886719c0.5527344,0,1,0.4472656,1,1v13.3007813    C10.4667969,28.6865234,10.0195313,29.1337891,9.4667969,29.1337891z M5.078125,15.8330078    C3.9326172,15.8330078,3,16.765625,3,17.9111328v7.1445313c0,1.1455078,0.9326172,2.078125,2.078125,2.078125h3.3886719    V15.8330078H5.078125z"></path>	</g>	<g>		<path d="M26.921875,29.1337891h-4.3886719c-0.5527344,0-1-0.4472656-1-1V14.8330078c0-0.5527344,0.4472656-1,1-1h4.3886719    c2.2490234,0,4.078125,1.8291016,4.078125,4.078125v7.1445313C31,27.3046875,29.1708984,29.1337891,26.921875,29.1337891z     M23.5332031,27.1337891h3.3886719c1.1455078,0,2.078125-0.9326172,2.078125-2.078125v-7.1445313    c0-1.1455078-0.9326172-2.078125-2.078125-2.078125h-3.3886719V27.1337891z"></path>	</g>	<g>		<path d="M9.4667969,29.1337891H5.078125C2.8291016,29.1337891,1,27.3046875,1,25.0556641v-7.1445313    c0-2.2490234,1.8291016-4.078125,4.078125-4.078125h4.3886719c0.5527344,0,1,0.4472656,1,1v13.3007813    C10.4667969,28.6865234,10.0195313,29.1337891,9.4667969,29.1337891z M5.078125,15.8330078    C3.9326172,15.8330078,3,16.765625,3,17.9111328v7.1445313c0,1.1455078,0.9326172,2.078125,2.078125,2.078125h3.3886719    V15.8330078H5.078125z"></path>	</g>	<g>		<path d="M26.921875,29.1337891h-4.3886719c-0.5527344,0-1-0.4472656-1-1V14.8330078c0-0.5527344,0.4472656-1,1-1h4.3886719    c2.2490234,0,4.078125,1.8291016,4.078125,4.078125v7.1445313C31,27.3046875,29.1708984,29.1337891,26.921875,29.1337891z     M23.5332031,27.1337891h3.3886719c1.1455078,0,2.078125-0.9326172,2.078125-2.078125v-7.1445313    c0-1.1455078-0.9326172-2.078125-2.078125-2.078125h-3.3886719V27.1337891z"></path>	</g>	<g>		<path d="M28.0742016,14.833333C27.4848309,8.6884518,22.2963543,3.8666666,16,3.8666666S4.5151691,8.6884518,3.9257975,14.833333    h3.7649498C8.2616615,10.7533607,11.7648516,7.5999999,16,7.5999999s7.7383385,3.1533608,8.3092537,7.2333331H28.0742016z"></path>	</g></g></svg>